<?xml version="1.0" standalone="no"?>
<!DOCTYPE svg PUBLIC "-//W3C//DTD SVG 20010904//EN"
 "http://www.w3.org/TR/2001/REC-SVG-20010904/DTD/svg10.dtd">
<svg version="1.0" xmlns="http://www.w3.org/2000/svg"
 width="16.000000pt" height="16.000000pt" viewBox="0 0 16.000000 16.000000"
 preserveAspectRatio="xMidYMid meet">
<metadata>
Created by potrace 1.11, written by Peter Selinger 2001-2013
</metadata>
<g transform="translate(0.000000,16.000000) scale(0.002286,-0.002286)"
fill="#000000" stroke="none">
<path d="M3298 6995 c-2 -1 -41 -5 -88 -9 -100 -7 -225 -22 -295 -36 -27 -5
-61 -12 -75 -14 -289 -53 -601 -157 -877 -293 -122 -60 -342 -186 -428 -246
-56 -39 -270 -200 -275 -208 -3 -3 -25 -23 -50 -44 -84 -69 -229 -214 -365
-365 -93 -103 -287 -374 -355 -495 -153 -272 -219 -414 -301 -652 -33 -98 -81
-259 -95 -326 -20 -90 -53 -272 -59 -322 -4 -33 -9 -69 -11 -80 -18 -98 -25
-572 -11 -715 12 -109 27 -226 41 -295 2 -11 6 -36 10 -55 22 -122 54 -248
102 -400 103 -325 231 -591 430 -890 416 -626 1059 -1120 1771 -1361 103 -35
338 -100 405 -113 13 -2 60 -11 106 -20 46 -9 111 -19 145 -22 34 -3 65 -8 68
-9 15 -10 227 -20 409 -20 188 0 341 8 430 21 144 21 295 48 345 61 33 8 67
16 75 18 100 20 358 107 513 172 122 51 339 160 395 198 20 14 40 25 45 25 4
0 13 5 20 10 7 6 64 45 127 87 108 71 250 178 330 248 119 104 294 279 365
365 21 25 41 47 44 50 17 12 180 233 238 323 252 387 417 793 507 1248 14 70
28 155 32 190 3 35 8 67 10 70 9 17 19 214 18 399 0 188 -6 331 -19 420 -3 19
-7 56 -10 81 -3 25 -7 54 -9 65 -2 10 -11 60 -21 109 -68 364 -199 718 -395
1070 -77 137 -283 432 -364 522 -214 233 -340 355 -501 484 -419 333 -929 573
-1452 683 -99 21 -246 44 -393 61 -56 7 -526 16 -532 10z m402 -879 c105 -8
167 -15 225 -26 28 -5 66 -12 85 -15 101 -16 307 -76 450 -131 218 -84 529
-268 717 -426 492 -411 833 -1015 918 -1625 3 -23 8 -57 10 -75 31 -223 22
-540 -21 -778 -128 -712 -531 -1322 -1145 -1736 -26 -17 -53 -34 -60 -38 -8
-3 -36 -20 -64 -37 -250 -152 -640 -288 -935 -325 -25 -3 -51 -7 -57 -9 -48
-16 -360 -23 -513 -12 -250 18 -575 89 -735 161 -16 8 -41 17 -55 21 -37 10
-314 147 -318 157 -2 4 -8 8 -13 8 -27 0 -302 194 -414 292 -467 409 -788 996
-870 1588 -3 25 -8 56 -10 70 -29 190 -24 468 11 710 151 1034 915 1883 1934
2149 63 17 133 33 155 36 22 4 47 8 55 10 8 2 38 7 65 11 28 3 58 8 69 10 10
2 59 6 110 10 50 3 92 7 93 8 5 4 238 -2 313 -8z"/>
<path d="M3305 5293 c-104 -212 -248 -504 -320 -647 l-130 -261 -73 -12 c-41
-7 -97 -14 -125 -18 -29 -3 -61 -7 -73 -9 -12 -2 -45 -7 -75 -11 -30 -4 -56
-8 -59 -10 -3 -2 -34 -6 -70 -10 -35 -3 -67 -8 -70 -10 -3 -1 -27 -6 -55 -9
-72 -9 -126 -17 -155 -21 -52 -8 -307 -46 -340 -50 -19 -3 -52 -8 -73 -11 -20
-3 -47 -7 -60 -9 -101 -13 -193 -27 -197 -31 -3 -3 63 -71 147 -152 83 -81
274 -266 423 -412 150 -146 315 -306 367 -357 l94 -92 -20 -113 c-11 -62 -23
-131 -26 -153 -3 -22 -10 -60 -15 -85 -5 -25 -28 -153 -50 -285 -22 -132 -42
-251 -45 -265 -6 -30 -9 -45 -31 -175 -9 -55 -18 -109 -20 -120 -2 -10 -6 -37
-10 -60 -3 -22 -11 -70 -18 -108 l-13 -67 121 64 c67 35 173 91 236 124 63 33
135 71 160 84 25 14 126 66 225 118 99 51 194 100 210 110 17 10 93 50 170 90
77 40 144 76 149 81 5 5 69 -23 145 -63 240 -125 325 -170 386 -203 33 -18
132 -70 220 -115 88 -46 180 -94 203 -107 24 -13 113 -60 197 -104 l154 -80
-9 33 c-5 18 -11 51 -14 73 -3 22 -7 49 -10 60 -4 20 -11 67 -22 139 -3 21 -8
48 -10 60 -2 11 -27 154 -55 316 -62 363 -56 334 -68 394 -6 28 -12 65 -15 81
-4 29 -20 126 -31 190 -3 17 -8 42 -11 57 -5 23 4 36 59 90 126 124 682 666
823 803 79 77 144 143 144 146 0 4 -26 10 -57 14 -32 3 -94 13 -138 20 -44 7
-107 17 -140 20 -33 4 -62 9 -65 10 -3 2 -34 6 -70 10 -36 4 -67 8 -70 10 -3
2 -30 6 -60 10 -51 6 -74 9 -140 20 -34 6 -319 47 -350 50 -58 7 -116 16 -138
21 -12 2 -42 7 -67 10 -24 3 -63 8 -87 12 l-43 7 -112 225 c-62 124 -202 407
-312 630 -111 223 -206 413 -213 423 -11 14 -40 -39 -203 -370z"/>
</g>
</svg>
